<svg width="813" height="396" viewBox="0 0 813 396" fill="none" xmlns="http://www.w3.org/2000/svg">
<g filter="url(#filter0_d_35_5)">
<path d="M14.3667 36.161C-30.6333 93.161 219.367 198.161 316.367 102.161C413.367 6.16105 216.367 -24.839 209.367 62.161C202.367 149.161 350.367 182.16 453.367 164.16C556.367 146.16 640.367 28.1602 737.367 48.1602C834.367 68.1602 814.367 163.16 737.367 179.16C660.367 195.16 668.367 127.16 715.367 111.16C762.367 95.1602 840.367 150.16 771.367 228.16C702.367 306.16 766.367 328.16 778.367 341.16C790.367 354.16 785.367 369.16 778.367 385.16" stroke="white" stroke-dasharray="10 20" shape-rendering="crispEdges"/>
</g>
<defs>
<filter id="filter0_d_35_5" x="0.246094" y="0.514404" width="812.578" height="394.846" filterUnits="userSpaceOnUse" color-interpolation-filters="sRGB">
<feFlood flood-opacity="0" result="BackgroundImageFix"/>
<feColorMatrix in="SourceAlpha" type="matrix" values="0 0 0 0 0 0 0 0 0 0 0 0 0 0 0 0 0 0 127 0" result="hardAlpha"/>
<feOffset/>
<feGaussianBlur stdDeviation="5"/>
<feComposite in2="hardAlpha" operator="out"/>
<feColorMatrix type="matrix" values="0 0 0 0 1 0 0 0 0 1 0 0 0 0 1 0 0 0 1 0"/>
<feBlend mode="normal" in2="BackgroundImageFix" result="effect1_dropShadow_35_5"/>
<feBlend mode="normal" in="SourceGraphic" in2="effect1_dropShadow_35_5" result="shape"/>
</filter>
</defs>
</svg>
